<svg xmlns="http://www.w3.org/2000/svg" xmlns:xlink="http://www.w3.org/1999/xlink" width="200px" height="200px" viewBox="0 0 200 200" version="1.1">
    <title>basket empty</title>
    <g id="basket-empty" stroke="none" stroke-width="1" fill="none" fill-rule="evenodd">
        <circle id="Oval" fill="#FBFCFD" cx="100" cy="99" r="100"/>
        <circle id="Oval" fill="#F6F8F9" cx="100" cy="99" r="75"/>
        <g id="Group" transform="translate(52.000000, 56.000000)">
            <path d="M94.6406905,27.5 C95.3310464,27.5 95.9560464,27.779822 96.4084574,28.232233 C96.8608684,28.6846441 97.1406905,29.3096441 97.1406905,30 C97.1406905,30.240797 97.1059015,30.4803309 97.0374016,30.7111792 L97.0374016,30.7111792 L83.091031,77.7111792 C82.9336048,78.2417137 82.6111262,78.6889189 82.1896546,79.0034904 C81.768183,79.318062 81.2477183,79.5 80.6943198,79.5 L80.6943198,79.5 L19.3056802,79.5 C18.7522817,79.5 18.231817,79.318062 17.8103454,79.0034904 C17.3888738,78.6889189 17.0663952,78.2417137 16.908969,77.7111792 L16.908969,77.7111792 L2.96259841,30.7111792 C2.76621171,30.0493457 2.85667794,29.3705665 3.16169923,28.8081489 C3.46672051,28.2457314 3.98629685,27.7996756 4.64813035,27.6032889 C4.87897865,27.534789 5.11851257,27.5 5.35930953,27.5 L5.35930953,27.5 Z" id="Rectangle" stroke="#3E3E3E" stroke-width="3" fill="#F8A1A1" style="&#10;    fill: rgba(51,65,149,0.6);&#10;"/>
            <path d="M68.5141548,67.6705496 C65.0647277,61.8795954 58.7409361,58 51.5110163,58 C44.2854798,58 37.964973,61.8748927 34.5141548,67.6600192" id="Path-Copy" stroke="#DD9999" stroke-width="3" stroke-linecap="round" style="&#10;    stroke: rgba(51,65,149,0.6);&#10;"/>
            <path d="M68.5141548,67.2394055 C64.8618203,61.1078069 58.1660408,57 50.5108317,57 C42.8602637,57 36.1679623,61.1028276 32.5141548,67.2282556" id="Path" stroke="#3E3E3E" stroke-width="3" stroke-linecap="round"/>
            <circle id="Oval" fill="#3E3E3E" cx="64.5" cy="44.5" r="2.5"/>
            <circle id="Oval-Copy" fill="#3E3E3E" cx="34.5" cy="44.5" r="2.5"/>
            <line x1="18" y1="27" x2="35" y2="0" id="Path-2" stroke="#3E3E3E" stroke-width="3" stroke-linecap="round"/>
            <line x1="65" y1="27" x2="82" y2="0" id="Path-2-Copy" stroke="#3E3E3E" stroke-width="3" stroke-linecap="round" transform="translate(73.500000, 13.500000) scale(-1, 1) translate(-73.500000, -13.500000) "/>
            <path d="M80.778882,34 L88.0148091,34 C88.5670938,34 89.0148091,34.4477153 89.0148091,35 C89.0148091,35.101155 88.9994611,35.2017245 88.9692891,35.298275 L87.3724083,40.4082935 C87.2512534,40.7959892 86.8387484,41.0120632 86.4510527,40.8909083 C86.1654202,40.8016481 85.9623517,40.5482209 85.9375,40.25 L85.6844548,37.2134582 C85.6489041,36.7868497 85.3457503,36.4301876 84.9304447,36.3263612 L80.625,35.25 C80.2850532,35.1650133 80.0783672,34.8205366 80.1633539,34.4805898 C80.2339654,34.1981439 80.4877434,34 80.778882,34 Z" id="Path-4" fill="#FFFFFF"/>
        </g>
        <ellipse id="Oval" fill="#CACED0" cx="102" cy="140" rx="48" ry="3"/>
        <polygon id="Path-3" stroke="#D9DBDC" fill="#FBFCFD" stroke-linejoin="round" points="178.375 24 174.5 41.5 177.625 41.5 177.625 54 181.375 39 178.375 39"/>
        <circle id="Oval" stroke="#D9DBDC" fill="#FBFCFD" cx="25" cy="33" r="5.5"/>
        <polygon id="Path-3" stroke="#E5E9EC" fill="#FBFCFD" stroke-linejoin="round" points="16.375 137 12.5 154.5 15.625 154.5 15.625 167 19.375 152 16.375 152"/>
        <polygon id="Path-3-Copy" stroke="#E9EBED" fill="#FBFCFD" stroke-linejoin="round" points="165.083333 154 162.5 165.666667 164.583333 165.666667 164.583333 174 167.083333 164 165.083333 164"/>
    </g>
</svg>