<svg width="16" height="19" viewBox="0 0 16 19" fill="none" xmlns="http://www.w3.org/2000/svg">
<path d="M7.92035 9.60087C9.18948 9.60087 10.2883 9.12781 11.1864 8.19445C12.0842 7.26125 12.5395 6.11942 12.5395 4.80028C12.5395 3.48161 12.0843 2.33962 11.1862 1.40611C10.2882 0.473064 9.18933 0 7.92035 0C6.65107 0 5.5524 0.473064 4.65447 1.40627C3.75654 2.33947 3.30121 3.48145 3.30121 4.80028C3.30121 6.11942 3.75654 7.2614 4.65447 8.19461C5.55269 9.12766 6.65151 9.60087 7.92035 9.60087ZM5.44925 2.23211C6.13824 1.51606 6.94648 1.16799 7.92035 1.16799C8.89407 1.16799 9.70246 1.51606 10.3916 2.23211C11.0806 2.94832 11.4157 3.78847 11.4157 4.80028C11.4157 5.81241 11.0806 6.6524 10.3916 7.36861C9.70246 8.08482 8.89407 8.43289 7.92035 8.43289C6.94677 8.43289 6.13853 8.08467 5.44925 7.36861C4.76011 6.65255 4.42505 5.81241 4.42505 4.80028C4.42505 3.78847 4.76011 2.94832 5.44925 2.23211Z" fill="#334195"/>
<path d="M15.9612 14.3951C15.9353 14.0067 15.8829 13.583 15.8058 13.1357C15.728 12.685 15.6278 12.2589 15.5078 11.8695C15.3837 11.4669 15.2153 11.0695 15.0068 10.6885C14.7907 10.2932 14.5367 9.94891 14.2517 9.66562C13.9537 9.36925 13.5887 9.13097 13.1668 8.95717C12.7463 8.78427 12.2803 8.69669 11.7818 8.69669C11.586 8.69669 11.3967 8.78017 11.031 9.02757C10.806 9.18009 10.5428 9.35648 10.249 9.55158C9.99777 9.71793 9.65744 9.8738 9.23708 10.0149C8.82697 10.1528 8.41056 10.2228 7.99941 10.2228C7.58857 10.2228 7.17216 10.1528 6.76175 10.0149C6.34183 9.87395 6.00135 9.71808 5.75057 9.55173C5.45955 9.35846 5.19619 9.18207 4.96779 9.02742C4.60245 8.78002 4.41312 8.69653 4.21735 8.69653C3.71871 8.69653 3.25285 8.78427 2.83249 8.95732C2.41081 9.13082 2.04576 9.3691 1.74743 9.66578C1.46241 9.94922 1.20841 10.2933 0.992447 10.6885C0.784242 11.0695 0.615689 11.4668 0.491614 11.8696C0.371783 12.259 0.271558 12.685 0.193719 13.1357C0.116466 13.5824 0.0642318 14.0062 0.0383342 14.3955C0.0128756 14.7761 0 15.1722 0 15.5725C0 16.6129 0.318233 17.4551 0.945772 18.0763C1.56556 18.6893 2.3855 19.0001 3.38292 19.0001H12.6171C13.6142 19.0001 14.4341 18.6893 15.0541 18.0763C15.6818 17.4556 16 16.613 16 15.5723C15.9999 15.1707 15.9868 14.7746 15.9612 14.3951ZM14.2792 17.2301C13.8697 17.6352 13.326 17.8321 12.6169 17.8321H3.38292C2.67374 17.8321 2.13004 17.6352 1.72065 17.2302C1.31902 16.8329 1.12384 16.2905 1.12384 15.5725C1.12384 15.199 1.13569 14.8303 1.15939 14.4763C1.18251 14.1289 1.22977 13.7474 1.29985 13.342C1.36906 12.9416 1.45714 12.5659 1.5619 12.2257C1.66242 11.8996 1.79951 11.5766 1.96953 11.2655C2.13179 10.9689 2.31849 10.7145 2.5245 10.5096C2.71719 10.3178 2.96007 10.1609 3.24626 10.0432C3.51095 9.93432 3.8084 9.87471 4.13132 9.86574C4.17067 9.88748 4.24076 9.92899 4.3543 10.0059C4.58533 10.1624 4.85162 10.3409 5.146 10.5363C5.47784 10.7562 5.90537 10.9548 6.41615 11.1262C6.93835 11.3017 7.47093 11.3908 7.99956 11.3908C8.52819 11.3908 9.06092 11.3017 9.58282 11.1263C10.094 10.9547 10.5214 10.7562 10.8537 10.536C11.155 10.3359 11.4138 10.1626 11.6448 10.0059C11.7584 9.92915 11.8284 9.88748 11.8678 9.86574C12.1909 9.87471 12.4883 9.93432 12.7531 10.0432C13.0392 10.1609 13.2821 10.318 13.4748 10.5096C13.6808 10.7144 13.8675 10.9688 14.0297 11.2656C14.1999 11.5766 14.3371 11.8997 14.4375 12.2256C14.5424 12.5662 14.6306 12.9418 14.6997 13.3419C14.7696 13.748 14.8171 14.1297 14.8402 14.4764V14.4767C14.864 14.8293 14.876 15.1979 14.8762 15.5725C14.876 16.2907 14.6808 16.8329 14.2792 17.2301Z" fill="#334195"/>
</svg>
